<svg width="184" height="15" viewBox="0 0 184 15" fill="none" xmlns="http://www.w3.org/2000/svg">
<path opacity="0.89" d="M6.304 11.192C4.74667 11.192 3.44 10.68 2.384 9.656C1.33867 8.62133 0.816 7.29333 0.816 5.672C0.816 4.05067 1.33867 2.728 2.384 1.704C3.44 0.669333 4.74667 0.151999 6.304 0.151999C8.01067 0.151999 9.36 0.856 10.352 2.264L9.232 2.888C8.92267 2.42933 8.50667 2.056 7.984 1.768C7.46133 1.48 6.90133 1.336 6.304 1.336C5.13067 1.336 4.14933 1.74667 3.36 2.568C2.58133 3.37867 2.192 4.41333 2.192 5.672C2.192 6.93067 2.58133 7.97067 3.36 8.792C4.14933 9.60267 5.13067 10.008 6.304 10.008C6.90133 10.008 7.46133 9.86933 7.984 9.592C8.50667 9.304 8.92267 8.92533 9.232 8.456L10.368 9.08C9.33333 10.488 7.97867 11.192 6.304 11.192ZM18.1565 10.024C17.4632 10.8027 16.5405 11.192 15.3885 11.192C14.2365 11.192 13.3085 10.8027 12.6045 10.024C11.9112 9.24533 11.5645 8.28 11.5645 7.128C11.5645 5.976 11.9112 5.016 12.6045 4.248C13.3085 3.46933 14.2365 3.08 15.3885 3.08C16.5405 3.08 17.4632 3.46933 18.1565 4.248C18.8605 5.016 19.2125 5.976 19.2125 7.128C19.2125 8.28 18.8605 9.24533 18.1565 10.024ZM13.5005 9.256C13.9698 9.832 14.5992 10.12 15.3885 10.12C16.1778 10.12 16.8018 9.832 17.2605 9.256C17.7192 8.66933 17.9485 7.96 17.9485 7.128C17.9485 6.296 17.7192 5.592 17.2605 5.016C16.8018 4.44 16.1778 4.152 15.3885 4.152C14.5992 4.152 13.9698 4.44533 13.5005 5.032C13.0418 5.608 12.8125 6.30667 12.8125 7.128C12.8125 7.96 13.0418 8.66933 13.5005 9.256ZM24.9768 11.192C23.8888 11.192 23.0194 10.7387 22.3688 9.832V13.944H21.1688V3.272H22.3688V4.424C22.6568 4.01867 23.0301 3.69333 23.4888 3.448C23.9474 3.20267 24.4434 3.08 24.9768 3.08C26.0008 3.08 26.8274 3.448 27.4568 4.184C28.0968 4.90933 28.4167 5.89067 28.4167 7.128C28.4167 8.36533 28.0968 9.352 27.4568 10.088C26.8274 10.824 26.0008 11.192 24.9768 11.192ZM24.6727 10.12C25.4301 10.12 26.0328 9.84267 26.4808 9.288C26.9288 8.72267 27.1528 8.00267 27.1528 7.128C27.1528 6.25333 26.9288 5.53867 26.4808 4.984C26.0328 4.42933 25.4301 4.152 24.6727 4.152C24.2141 4.152 23.7661 4.27467 23.3288 4.52C22.9021 4.75467 22.5821 5.04267 22.3688 5.384V8.872C22.5821 9.224 22.9021 9.52267 23.3288 9.768C23.7661 10.0027 24.2141 10.12 24.6727 10.12ZM29.893 14.024L30.085 12.936C30.277 13.0213 30.4957 13.064 30.741 13.064C31.0183 13.064 31.2477 13.0053 31.429 12.888C31.6103 12.7707 31.765 12.5573 31.893 12.248L32.405 11.08L29.173 3.272H30.469L33.045 9.608L35.605 3.272H36.917L33.045 12.568C32.6183 13.592 31.861 14.1147 30.773 14.136C30.453 14.136 30.1597 14.0987 29.893 14.024ZM39.3688 11H38.1688V3.272H39.3688V4.52C40.0834 3.58133 40.9421 3.112 41.9448 3.112V4.344C41.7954 4.312 41.6354 4.296 41.4648 4.296C41.1021 4.296 40.7074 4.424 40.2808 4.68C39.8541 4.936 39.5501 5.21867 39.3688 5.528V11ZM44.042 2.168C43.8287 2.168 43.642 2.09333 43.482 1.944C43.322 1.784 43.242 1.592 43.242 1.368C43.242 1.144 43.322 0.952 43.482 0.792C43.642 0.631999 43.8287 0.551999 44.042 0.551999C44.266 0.551999 44.458 0.631999 44.618 0.792C44.778 0.952 44.858 1.144 44.858 1.368C44.858 1.592 44.778 1.784 44.618 1.944C44.458 2.09333 44.266 2.168 44.042 2.168ZM44.65 11H43.45V3.272H44.65V11ZM50.1478 14.136C49.4651 14.136 48.8838 14.0507 48.4038 13.88C47.9238 13.72 47.4651 13.4213 47.0278 12.984L47.6358 12.088C48.2224 12.792 49.0598 13.144 50.1478 13.144C50.8624 13.144 51.4544 12.952 51.9238 12.568C52.3931 12.1947 52.6278 11.6133 52.6278 10.824V9.72C52.3398 10.1253 51.9664 10.456 51.5078 10.712C51.0491 10.968 50.5584 11.096 50.0358 11.096C49.0118 11.096 48.1798 10.7387 47.5398 10.024C46.9104 9.29867 46.5958 8.32267 46.5958 7.096C46.5958 5.86933 46.9104 4.89333 47.5398 4.168C48.1798 3.44267 49.0118 3.08 50.0358 3.08C51.0918 3.08 51.9558 3.53333 52.6278 4.44V3.272H53.8278V10.776C53.8278 11.96 53.4811 12.8133 52.7878 13.336C52.0944 13.8693 51.2144 14.136 50.1478 14.136ZM50.3238 10.04C50.7824 10.04 51.2251 9.91733 51.6518 9.672C52.0891 9.42667 52.4144 9.128 52.6278 8.776V5.4C52.4144 5.048 52.0944 4.75467 51.6678 4.52C51.2411 4.27467 50.7931 4.152 50.3238 4.152C49.5558 4.152 48.9478 4.424 48.4998 4.968C48.0624 5.512 47.8438 6.22133 47.8438 7.096C47.8438 7.96 48.0678 8.66933 48.5158 9.224C48.9638 9.768 49.5664 10.04 50.3238 10.04ZM62.6633 11H61.4633V5.912C61.4633 5.272 61.3139 4.81867 61.0153 4.552C60.7166 4.28533 60.2846 4.152 59.7193 4.152C59.2819 4.152 58.8499 4.26933 58.4233 4.504C58.0073 4.73867 57.6766 5.02133 57.4313 5.352V11H56.2313V0.327999H57.4313V4.392C57.7299 4.04 58.1299 3.736 58.6313 3.48C59.1326 3.21333 59.6553 3.08 60.1993 3.08C61.8419 3.08 62.6633 3.90133 62.6633 5.544V11ZM67.0114 11.192C66.446 11.192 66.0194 11.0373 65.7314 10.728C65.4434 10.4187 65.2994 9.97067 65.2994 9.384V4.328H64.0194V3.272H65.2994V1.16H66.4994V3.272H68.0674V4.328H66.4994V9.128C66.4994 9.42667 66.5634 9.66667 66.6914 9.848C66.83 10.0293 67.0274 10.12 67.2834 10.12C67.6354 10.12 67.9074 10.0133 68.0994 9.8L68.4514 10.696C68.0994 11.0267 67.6194 11.192 67.0114 11.192ZM82.8155 1.752C83.8928 2.82933 84.4315 4.13067 84.4315 5.656C84.4315 7.18133 83.8928 8.48267 82.8155 9.56C81.7382 10.6373 80.4368 11.176 78.9115 11.176C77.3862 11.176 76.0848 10.6373 75.0075 9.56C73.9302 8.472 73.3915 7.17067 73.3915 5.656C73.3915 4.13067 73.9302 2.82933 75.0075 1.752C76.0848 0.674666 77.3862 0.136 78.9115 0.136C80.4368 0.136 81.7382 0.674666 82.8155 1.752ZM82.4635 9.208C83.4448 8.22667 83.9355 7.04267 83.9355 5.656C83.9355 4.26933 83.4448 3.08533 82.4635 2.104C81.4822 1.12267 80.2982 0.632 78.9115 0.632C77.5248 0.632 76.3408 1.12267 75.3595 2.104C74.3782 3.08533 73.8875 4.26933 73.8875 5.656C73.8875 7.04267 74.3782 8.22667 75.3595 9.208C76.3408 10.1893 77.5248 10.68 78.9115 10.68C80.2982 10.68 81.4822 10.1893 82.4635 9.208ZM80.8795 7.608L81.2955 8.008C80.6875 8.712 79.9035 9.064 78.9435 9.064C78.0155 9.064 77.2262 8.73867 76.5755 8.088C75.9355 7.42667 75.6155 6.61067 75.6155 5.64C75.6155 4.66933 75.9355 3.85867 76.5755 3.208C77.2262 2.55733 78.0155 2.232 78.9435 2.232C79.9035 2.232 80.6822 2.584 81.2795 3.288L80.8795 3.672C80.6768 3.39467 80.3942 3.176 80.0315 3.016C79.6795 2.84533 79.3168 2.76 78.9435 2.76C78.1968 2.76 77.5515 3.032 77.0075 3.576C76.4742 4.10933 76.2075 4.79733 76.2075 5.64C76.2075 6.46133 76.4795 7.14933 77.0235 7.704C77.5675 8.25867 78.2075 8.536 78.9435 8.536C79.3275 8.536 79.6902 8.45067 80.0315 8.28C80.3835 8.10933 80.6662 7.88533 80.8795 7.608ZM97.4576 11H90.1296V9.944C91.239 9.06933 92.0976 8.376 92.7056 7.864C93.3243 7.34133 93.9163 6.792 94.4816 6.216C95.0576 5.62933 95.463 5.112 95.6976 4.664C95.9323 4.20533 96.0496 3.752 96.0496 3.304C96.0496 2.664 95.831 2.17867 95.3936 1.848C94.9563 1.51733 94.4336 1.352 93.8256 1.352C92.599 1.352 91.6336 1.8 90.9296 2.696L90.1136 1.848C90.519 1.31467 91.047 0.903999 91.6976 0.615999C92.359 0.317333 93.0683 0.167999 93.8256 0.167999C94.7963 0.167999 95.6336 0.439999 96.3376 0.983999C97.0523 1.528 97.4096 2.30133 97.4096 3.304C97.4096 4.296 96.983 5.288 96.1296 6.28C95.2763 7.26133 93.975 8.44 92.2256 9.816H97.4576V11ZM103.568 11.192C102.864 11.192 102.24 11.032 101.696 10.712C101.163 10.3813 100.736 9.944 100.416 9.4C100.107 8.856 99.8719 8.26933 99.7119 7.64C99.5625 7.01067 99.4879 6.35467 99.4879 5.672C99.4879 4.98933 99.5625 4.33333 99.7119 3.704C99.8719 3.07467 100.107 2.49333 100.416 1.96C100.736 1.416 101.163 0.983999 101.696 0.664C102.24 0.333333 102.864 0.167999 103.568 0.167999C104.261 0.167999 104.88 0.333333 105.424 0.664C105.968 0.983999 106.395 1.416 106.704 1.96C107.024 2.49333 107.259 3.07467 107.408 3.704C107.568 4.33333 107.648 4.98933 107.648 5.672C107.648 6.35467 107.568 7.01067 107.408 7.64C107.259 8.26933 107.024 8.856 106.704 9.4C106.395 9.944 105.968 10.3813 105.424 10.712C104.88 11.032 104.261 11.192 103.568 11.192ZM101.968 9.352C102.395 9.78933 102.928 10.008 103.568 10.008C104.208 10.008 104.741 9.78933 105.168 9.352C105.595 8.904 105.888 8.37067 106.048 7.752C106.208 7.13333 106.288 6.44 106.288 5.672C106.288 4.904 106.208 4.21067 106.048 3.592C105.888 2.97333 105.595 2.44533 105.168 2.008C104.741 1.57067 104.208 1.352 103.568 1.352C102.928 1.352 102.395 1.57067 101.968 2.008C101.541 2.44533 101.248 2.97333 101.088 3.592C100.928 4.21067 100.848 4.904 100.848 5.672C100.848 6.44 100.928 7.13333 101.088 7.752C101.248 8.37067 101.541 8.904 101.968 9.352ZM116.661 11H109.333V9.944C110.442 9.06933 111.301 8.376 111.909 7.864C112.527 7.34133 113.119 6.792 113.685 6.216C114.261 5.62933 114.666 5.112 114.901 4.664C115.135 4.20533 115.253 3.752 115.253 3.304C115.253 2.664 115.034 2.17867 114.597 1.848C114.159 1.51733 113.637 1.352 113.029 1.352C111.802 1.352 110.837 1.8 110.133 2.696L109.317 1.848C109.722 1.31467 110.25 0.903999 110.901 0.615999C111.562 0.317333 112.271 0.167999 113.029 0.167999C113.999 0.167999 114.837 0.439999 115.541 0.983999C116.255 1.528 116.613 2.30133 116.613 3.304C116.613 4.296 116.186 5.288 115.333 6.28C114.479 7.26133 113.178 8.44 111.429 9.816H116.661V11ZM126.067 11H118.739V9.944C119.848 9.06933 120.707 8.376 121.315 7.864C121.934 7.34133 122.526 6.792 123.091 6.216C123.667 5.62933 124.072 5.112 124.307 4.664C124.542 4.20533 124.659 3.752 124.659 3.304C124.659 2.664 124.44 2.17867 124.003 1.848C123.566 1.51733 123.043 1.352 122.435 1.352C121.208 1.352 120.243 1.8 119.539 2.696L118.723 1.848C119.128 1.31467 119.656 0.903999 120.307 0.615999C120.968 0.317333 121.678 0.167999 122.435 0.167999C123.406 0.167999 124.243 0.439999 124.947 0.983999C125.662 1.528 126.019 2.30133 126.019 3.304C126.019 4.296 125.592 5.288 124.739 6.28C123.886 7.26133 122.584 8.44 120.835 9.816H126.067V11ZM137.71 11.192C136.153 11.192 134.846 10.68 133.79 9.656C132.745 8.62133 132.222 7.29333 132.222 5.672C132.222 4.05067 132.745 2.728 133.79 1.704C134.846 0.669333 136.153 0.151999 137.71 0.151999C139.417 0.151999 140.766 0.856 141.758 2.264L140.638 2.888C140.329 2.42933 139.913 2.056 139.39 1.768C138.868 1.48 138.308 1.336 137.71 1.336C136.537 1.336 135.556 1.74667 134.766 2.568C133.988 3.37867 133.598 4.41333 133.598 5.672C133.598 6.93067 133.988 7.97067 134.766 8.792C135.556 9.60267 136.537 10.008 137.71 10.008C138.308 10.008 138.868 9.86933 139.39 9.592C139.913 9.304 140.329 8.92533 140.638 8.456L141.774 9.08C140.74 10.488 139.385 11.192 137.71 11.192ZM144.011 2.168C143.797 2.168 143.611 2.09333 143.451 1.944C143.291 1.784 143.211 1.592 143.211 1.368C143.211 1.144 143.291 0.952 143.451 0.792C143.611 0.631999 143.797 0.551999 144.011 0.551999C144.235 0.551999 144.427 0.631999 144.587 0.792C144.747 0.952 144.827 1.144 144.827 1.368C144.827 1.592 144.747 1.784 144.587 1.944C144.427 2.09333 144.235 2.168 144.011 2.168ZM144.619 11H143.419V3.272H144.619V11ZM148.965 11.192C148.399 11.192 147.973 11.0373 147.685 10.728C147.397 10.4187 147.253 9.97067 147.253 9.384V4.328H145.973V3.272H147.253V1.16H148.453V3.272H150.021V4.328H148.453V9.128C148.453 9.42667 148.517 9.66667 148.645 9.848C148.783 10.0293 148.981 10.12 149.237 10.12C149.589 10.12 149.861 10.0133 150.053 9.8L150.405 10.696C150.053 11.0267 149.573 11.192 148.965 11.192ZM155.204 11.192C154.052 11.192 153.108 10.8187 152.372 10.072C151.636 9.31467 151.268 8.33333 151.268 7.128C151.268 5.99733 151.63 5.04267 152.356 4.264C153.081 3.47467 153.988 3.08 155.076 3.08C156.217 3.08 157.118 3.47467 157.78 4.264C158.452 5.04267 158.788 6.02933 158.788 7.224V7.528H152.532C152.585 8.28533 152.862 8.92 153.364 9.432C153.865 9.944 154.516 10.2 155.316 10.2C156.276 10.2 157.07 9.87467 157.7 9.224L158.276 10.008C157.486 10.7973 156.462 11.192 155.204 11.192ZM157.604 6.648C157.593 5.98667 157.369 5.39467 156.932 4.872C156.494 4.33867 155.87 4.072 155.06 4.072C154.292 4.072 153.684 4.33333 153.236 4.856C152.798 5.37867 152.564 5.976 152.532 6.648H157.604ZM161.931 11H160.731V0.327999H161.931V11ZM164.917 2.168C164.704 2.168 164.517 2.09333 164.357 1.944C164.197 1.784 164.117 1.592 164.117 1.368C164.117 1.144 164.197 0.952 164.357 0.792C164.517 0.631999 164.704 0.551999 164.917 0.551999C165.141 0.551999 165.333 0.631999 165.493 0.792C165.653 0.952 165.733 1.144 165.733 1.368C165.733 1.592 165.653 1.784 165.493 1.944C165.333 2.09333 165.141 2.168 164.917 2.168ZM165.525 11H164.325V3.272H165.525V11ZM174.335 11H173.135V5.944C173.135 5.29333 172.985 4.83467 172.687 4.568C172.388 4.29067 171.961 4.152 171.407 4.152C170.959 4.152 170.521 4.26933 170.095 4.504C169.679 4.73867 169.353 5.02133 169.119 5.352V11H167.919V3.272H169.119V4.392C169.417 4.04 169.817 3.736 170.319 3.48C170.82 3.21333 171.337 3.08 171.871 3.08C173.513 3.08 174.335 3.912 174.335 5.576V11ZM180.219 11.192C179.067 11.192 178.123 10.8187 177.387 10.072C176.651 9.31467 176.283 8.33333 176.283 7.128C176.283 5.99733 176.646 5.04267 177.371 4.264C178.097 3.47467 179.003 3.08 180.091 3.08C181.233 3.08 182.134 3.47467 182.795 4.264C183.467 5.04267 183.803 6.02933 183.803 7.224V7.528H177.547C177.601 8.28533 177.878 8.92 178.379 9.432C178.881 9.944 179.531 10.2 180.331 10.2C181.291 10.2 182.086 9.87467 182.715 9.224L183.291 10.008C182.502 10.7973 181.478 11.192 180.219 11.192ZM182.619 6.648C182.609 5.98667 182.385 5.39467 181.947 4.872C181.51 4.33867 180.886 4.072 180.075 4.072C179.307 4.072 178.699 4.33333 178.251 4.856C177.814 5.37867 177.579 5.976 177.547 6.648H182.619Z" fill="#333E5B"/>
</svg>
