<svg width="960" height="1080" viewBox="0 0 960 1080" fill="none" xmlns="http://www.w3.org/2000/svg">
<g opacity="0.2">
<mask id="mask0_323_44566" style="mask-type:alpha" maskUnits="userSpaceOnUse" x="0" y="0" width="960" height="1080">
<rect width="960" height="1080" fill="white"/>
</mask>
<g mask="url(#mask0_323_44566)">
<path d="M-14.5002 860.5C-21.9792 938.638 -14.5002 1061.5 -14.5002 1061.5V1112.5H986V-89H935C935 -89 35.4634 338.491 -14.5002 860.5Z" fill="url(#paint0_linear_323_44566)"/>
<path d="M-7.50018 1098.5C-7.50018 1054.37 -729 688.5 -7.50018 842.5C714 996.5 1056.5 102 1056.5 102L970 1098.5H-7.50018Z" fill="url(#paint1_linear_323_44566)"/>
<path d="M982.5 449.5C821.223 33.7484 -16 -104.5 -16 -104.5V1095H982.5C982.5 1095 1073.67 684.52 982.5 449.5Z" fill="url(#paint2_linear_323_44566)"/>
</g>
</g>
<defs>
<linearGradient id="paint0_linear_323_44566" x1="485.75" y1="-89" x2="485.75" y2="1112.5" gradientUnits="userSpaceOnUse">
<stop stop-color="#333E5B" stop-opacity="0.1"/>
<stop offset="1" stop-color="#EBEEF7"/>
<stop offset="1" stop-color="#EBEEF7" stop-opacity="0.1"/>
</linearGradient>
<linearGradient id="paint1_linear_323_44566" x1="481.249" y1="687.5" x2="481.249" y2="1098.5" gradientUnits="userSpaceOnUse">
<stop stop-color="#333E5B" stop-opacity="0.1"/>
<stop offset="1" stop-color="#EBEEF7"/>
<stop offset="1" stop-color="#EBEEF7" stop-opacity="0.1"/>
</linearGradient>
<linearGradient id="paint2_linear_323_44566" x1="483.25" y1="270.5" x2="483.25" y2="1095" gradientUnits="userSpaceOnUse">
<stop stop-color="#333E5B" stop-opacity="0.1"/>
<stop offset="1" stop-color="#EBEEF7"/>
<stop offset="1" stop-color="#EBEEF7" stop-opacity="0.1"/>
</linearGradient>
</defs>
</svg>
